# xmcd CD database file
#
# Track frame offsets:
#	182
#	15982
#	35382
#	61460
#	81310
#	96062
#	109950
#	123217
#	143385
#	162910
#	179335
#	193045
#	213580
#	228602
#	245657
#	259405
#	277610
#	299397
#	316205
#	330947
#
# Disc length: 4587 seconds
#
# Revision: 25
# Processed by: cddbd v1.5.2PL0 Copyright (c) Steve Scherf et al.
# Submitted via: CDex 1.71
#
DISCID=1711e914
DTITLE=ABBA - Gold - Greatest Hits 2 - ABBA - Gold - Greatest Hits 2
DYEAR=1993
DGENRE=Pop
TTITLE0=ABBA - Summer Night City (1978)
TTITLE1=ABBA - Angeleyes (1979)
TTITLE2=ABBA - The Day Before You Came (1982)
TTITLE3=ABBA - Eagle [7'' Version] (1977)
TTITLE4=ABBA - I Do, I Do, I Do, I Do, I Do (1974)
TTITLE5=ABBA - So Long (1974)
TTITLE6=ABBA - Honey, Honey (1974)
TTITLE7=ABBA - The Visitors (1981)
TTITLE8=ABBA - Our Last Summer (1980)
TTITLE9=ABBA - On And On And On (1980)
TTITLE10=ABBA - Ring Ring (1973)
TTITLE11=ABBA - I Wonder (Departure) (1977)
TTITLE12=ABBA - Lovelight (1979)
TTITLE13=ABBA - Head Over Heels (1981)
TTITLE14=ABBA - When I Kissed The Teacher (1976)
TTITLE15=ABBA - I am The City (1982)
TTITLE16=ABBA - Cassandra (1982)
TTITLE17=ABBA - Under Attack (1982)
TTITLE18=ABBA - When All Is Said And Done (1981)
TTITLE19=The Way Old Friends Do (1980)
EXTD=ABBA - Gold - Greatest Hits 2\n YEAR: 1993
EXTT0=
EXTT1=
EXTT2=
EXTT3=
EXTT4=
EXTT5=
EXTT6=
EXTT7=
EXTT8=
EXTT9=
EXTT10=
EXTT11=
EXTT12=
EXTT13=
EXTT14=
EXTT15=
EXTT16=
EXTT17=
EXTT18=
EXTT19=
PLAYORDER=
